<svg width="17" height="14" viewBox="0 0 17 14" fill="none" xmlns="http://www.w3.org/2000/svg">
<g clip-path="url(#clip0_4_25)">
<path d="M14.4477 4.375H10.5065V3.5H14.4477V4.375ZM2.13129 1.75C1.31533 1.75 0.65332 2.33789 0.65332 3.0625V4.8125C0.65332 5.53711 1.31533 6.125 2.13129 6.125H14.9404C15.7564 6.125 16.4184 5.53711 16.4184 4.8125V3.0625C16.4184 2.33789 15.7564 1.75 14.9404 1.75H2.13129ZM14.4477 9.625V10.5H6.56521V9.625H14.4477ZM2.13129 7.875C1.31533 7.875 0.65332 8.46289 0.65332 9.1875V10.9375C0.65332 11.6621 1.31533 12.25 2.13129 12.25H14.9404C15.7564 12.25 16.4184 11.6621 16.4184 10.9375V9.1875C16.4184 8.46289 15.7564 7.875 14.9404 7.875H2.13129Z" fill="#31A2FF"/>
</g>
<defs>
<clipPath id="clip0_4_25">
<rect width="15.765" height="14" fill="white" transform="translate(0.65332)"/>
</clipPath>
</defs>
</svg>
