<svg width="17" height="12" viewBox="0 0 17 12" fill="none" xmlns="http://www.w3.org/2000/svg">
<path d="M5.04256 0.174034C5.34736 0.42053 5.37199 0.838742 5.09798 1.11293L2.88124 3.32863C2.74577 3.46434 2.55488 3.54466 2.35168 3.54743C2.14848 3.5502 1.95452 3.48096 1.80981 3.35355L0.57521 2.24571C0.288881 1.98536 0.288881 1.56438 0.57521 1.30404C0.86154 1.04369 1.3326 1.04369 1.61893 1.30404L2.29934 1.91612L3.99577 0.221117C4.26978 -0.0530745 4.73468 -0.0752315 5.03948 0.171264L5.04256 0.174034ZM5.04256 4.60542C5.34736 4.85192 5.37199 5.27013 5.09798 5.54432L2.88124 7.76001C2.74577 7.89572 2.55488 7.97604 2.35168 7.97881C2.14848 7.98158 1.95452 7.91234 1.80981 7.78494L0.57521 6.67709C0.285802 6.41675 0.285802 5.99577 0.57521 5.73819C0.864618 5.48062 1.3326 5.47785 1.61893 5.73819L2.29934 6.35028L3.99577 4.65527C4.26978 4.38108 4.73468 4.35892 5.03948 4.60542H5.04256ZM7.25623 1.77487C7.25623 1.28465 7.6965 0.888595 8.24144 0.888595H15.138C15.6829 0.888595 16.1232 1.28465 16.1232 1.77487C16.1232 2.26509 15.6829 2.66115 15.138 2.66115H8.24144C7.6965 2.66115 7.25623 2.26509 7.25623 1.77487ZM7.25623 6.20626C7.25623 5.71604 7.6965 5.31998 8.24144 5.31998H15.138C15.6829 5.31998 16.1232 5.71604 16.1232 6.20626C16.1232 6.69648 15.6829 7.09253 15.138 7.09253H8.24144C7.6965 7.09253 7.25623 6.69648 7.25623 6.20626ZM5.28579 10.6376C5.28579 10.1474 5.72606 9.75137 6.27101 9.75137H15.138C15.6829 9.75137 16.1232 10.1474 16.1232 10.6376C16.1232 11.1279 15.6829 11.5239 15.138 11.5239H6.27101C5.72606 11.5239 5.28579 11.1279 5.28579 10.6376ZM1.83752 9.30823C2.22947 9.30823 2.60536 9.44829 2.8825 9.6976C3.15965 9.94692 3.31535 10.2851 3.31535 10.6376C3.31535 10.9902 3.15965 11.3284 2.8825 11.5777C2.60536 11.827 2.22947 11.9671 1.83752 11.9671C1.44558 11.9671 1.06969 11.827 0.79254 11.5777C0.515393 11.3284 0.359694 10.9902 0.359694 10.6376C0.359694 10.2851 0.515393 9.94692 0.79254 9.6976C1.06969 9.44829 1.44558 9.30823 1.83752 9.30823Z" fill="#F05454"/>
</svg>
